<?xml version="1.0" encoding="utf-8"?>
<!-- Generator: Adobe Illustrator 24.0.1, SVG Export Plug-In . SVG Version: 6.00 Build 0)  -->
<!DOCTYPE svg PUBLIC "-//W3C//DTD SVG 1.1//EN" "http://www.w3.org/Graphics/SVG/1.1/DTD/svg11.dtd" [
	<!ENTITY ns_extend "http://ns.adobe.com/Extensibility/1.0/">
	<!ENTITY ns_ai "http://ns.adobe.com/AdobeIllustrator/10.0/">
	<!ENTITY ns_graphs "http://ns.adobe.com/Graphs/1.0/">
	<!ENTITY ns_vars "http://ns.adobe.com/Variables/1.0/">
	<!ENTITY ns_imrep "http://ns.adobe.com/ImageReplacement/1.0/">
	<!ENTITY ns_sfw "http://ns.adobe.com/SaveForWeb/1.0/">
	<!ENTITY ns_custom "http://ns.adobe.com/GenericCustomNamespace/1.0/">
	<!ENTITY ns_adobe_xpath "http://ns.adobe.com/XPath/1.0/">
]>
<svg version="1.1" id="Layer_1" xmlns:x="&ns_extend;" xmlns:i="&ns_ai;" xmlns:graph="&ns_graphs;"
	 xmlns="http://www.w3.org/2000/svg" xmlns:xlink="http://www.w3.org/1999/xlink" x="0px" y="0px" viewBox="0 0 109.5 42.6"
	 style="enable-background:new 0 0 109.5 42.6;" xml:space="preserve">
<style type="text/css">
	.st0{fill:none;}
	.st1{fill:url(#SVGID_1_);}
	.st2{opacity:0.6;}
	.st3{fill:#231F20;}
	.st4{fill:#FFFFFF;}
	.st5{fill:url(#SVGID_2_);}
	.st6{fill:url(#SVGID_3_);}
	.st7{fill:url(#SVGID_4_);}
	.st8{opacity:0.4;fill:#FFFFFF;enable-background:new    ;}
	.st9{fill:url(#SVGID_5_);}
	.st10{fill:url(#SVGID_6_);}
	.st11{fill:url(#SVGID_7_);}
	.st12{fill:url(#SVGID_8_);}
	.st13{fill:url(#SVGID_9_);}
	.st14{opacity:0.6;fill:#231F20;enable-background:new    ;}
</style>
<metadata>
	<sfw  xmlns="&ns_sfw;">
		<slices></slices>
		<sliceSourceBounds  bottomLeftOrigin="true" height="36" width="105.4" x="0.2" y="3.4"></sliceSourceBounds>
	</sfw>
</metadata>
<polygon class="st0" points="48.1,14.8 47.3,14.8 47.3,14.8 "/>
<g>
	<g>
		
			<linearGradient id="SVGID_1_" gradientUnits="userSpaceOnUse" x1="-14.0189" y1="20.2991" x2="78.934" y2="21.1403" gradientTransform="matrix(1 0 0 -1 0 41.8898)">
			<stop  offset="0" style="stop-color:#0071BC"/>
			<stop  offset="0.1061" style="stop-color:#006CB3"/>
			<stop  offset="0.2773" style="stop-color:#005D9C"/>
			<stop  offset="0.4921" style="stop-color:#004675"/>
			<stop  offset="0.7421" style="stop-color:#00263F"/>
			<stop  offset="1" style="stop-color:#000000"/>
		</linearGradient>
		<circle class="st1" cx="18.1" cy="21.3" r="17.9"/>
	</g>
	<g class="st2">
		<circle class="st3" cx="18.4" cy="21.5" r="17.4"/>
	</g>
	<circle class="st4" cx="18.7" cy="21" r="16.4"/>
	<g>
		
			<linearGradient id="SVGID_2_" gradientUnits="userSpaceOnUse" x1="13.8" y1="7.9898" x2="13.8" y2="7.9898" gradientTransform="matrix(1 0 0 -1 0 41.8898)">
			<stop  offset="0" style="stop-color:#0071BC"/>
			<stop  offset="0.1061" style="stop-color:#006CB3"/>
			<stop  offset="0.2773" style="stop-color:#005D9C"/>
			<stop  offset="0.4921" style="stop-color:#004675"/>
			<stop  offset="0.7421" style="stop-color:#00263F"/>
			<stop  offset="1" style="stop-color:#000000"/>
		</linearGradient>
		<path class="st5" d="M13.8,33.9L13.8,33.9L13.8,33.9z"/>
		
			<linearGradient id="SVGID_3_" gradientUnits="userSpaceOnUse" x1="7.989" y1="16.4725" x2="59.1898" y2="29.948" gradientTransform="matrix(1 0 0 -1 0 41.8898)">
			<stop  offset="0" style="stop-color:#0071BC"/>
			<stop  offset="0.1625" style="stop-color:#006FB8"/>
			<stop  offset="0.3092" style="stop-color:#0068AD"/>
			<stop  offset="0.45" style="stop-color:#005D9B"/>
			<stop  offset="0.5871" style="stop-color:#004E81"/>
			<stop  offset="0.7216" style="stop-color:#003A60"/>
			<stop  offset="0.854" style="stop-color:#002137"/>
			<stop  offset="0.9824" style="stop-color:#000407"/>
			<stop  offset="1" style="stop-color:#000000"/>
		</linearGradient>
		<path class="st6" d="M23.2,5.7c-3.3,0-6.3,1-8.8,2.7c2.4-1.6,5.5-1.9,8.8-1.9c8.7,0,14.2,8.4,14.2,14.9c0,6.7-4.5,11.6-9.9,13.9
			c-1.4,0.6-2.8,1-4.2,1c-4.1,0-6.2-0.3-8.2-1.5c2.4,1.5,5.2,2.3,8.2,2.3c8.7,0,15.7-7,15.7-15.7C38.9,12.7,31.9,5.7,23.2,5.7z"/>
		
			<linearGradient id="SVGID_4_" gradientUnits="userSpaceOnUse" x1="13.8" y1="33.0898" x2="13.8" y2="33.0898" gradientTransform="matrix(1 0 0 -1 0 41.8898)">
			<stop  offset="0" style="stop-color:#0071BC"/>
			<stop  offset="0.1061" style="stop-color:#006CB3"/>
			<stop  offset="0.2773" style="stop-color:#005D9C"/>
			<stop  offset="0.4921" style="stop-color:#004675"/>
			<stop  offset="0.7421" style="stop-color:#00263F"/>
			<stop  offset="1" style="stop-color:#000000"/>
		</linearGradient>
		<path class="st7" d="M13.8,8.8L13.8,8.8L13.8,8.8z"/>
		<path class="st8" d="M13.9,8.8c0.2-0.1,0.4-0.3,0.6-0.4C14.2,8.5,14,8.6,13.9,8.8z"/>
		<path class="st8" d="M13.8,8.8L13.8,8.8L13.8,8.8z"/>
		<path class="st8" d="M13.8,33.9L13.8,33.9L13.8,33.9z"/>
		<path class="st8" d="M15,34.7c-0.4-0.2-0.8-0.5-1.1-0.8C14.2,34.2,14.6,34.4,15,34.7z"/>
		
			<linearGradient id="SVGID_5_" gradientUnits="userSpaceOnUse" x1="7.8778" y1="16.8953" x2="59.0785" y2="30.3708" gradientTransform="matrix(1 0 0 -1 0 41.8898)">
			<stop  offset="0" style="stop-color:#0071BC"/>
			<stop  offset="0.1061" style="stop-color:#006CB3"/>
			<stop  offset="0.2773" style="stop-color:#005D9C"/>
			<stop  offset="0.4921" style="stop-color:#004675"/>
			<stop  offset="0.7421" style="stop-color:#00263F"/>
			<stop  offset="1" style="stop-color:#000000"/>
		</linearGradient>
		<path class="st9" d="M23.2,36.2c1.4,0,2.9-0.4,4.2-1c5.4-2.3,9.9-7.2,9.9-13.9c0-6.5-5.5-14.9-14.2-14.9c-3.3,0-6.4,0.3-8.8,1.9
			c-0.2,0.1-0.4,0.3-0.6,0.4l0,0l0,0c0.8-0.4,1.6-0.8,2.5-1c0.9-0.3,1.9-0.5,3.1-0.6c0.6,0,1.2-0.1,1.9,0c0.3,0,0.6,0,0.9,0.1
			c0.4,0.1,0.8,0.1,1.2,0.2c0.2,0.1,0.5,0.1,0.7,0.2s0.5,0.1,0.7,0.2C25,7.9,25.2,7.9,25.4,8c0.2,0.1,0.3,0.1,0.5,0.2
			c0.2,0.1,0.3,0.1,0.5,0.2c0.2,0.1,0.4,0.2,0.6,0.3s0.4,0.2,0.7,0.4c0.2,0.1,0.5,0.3,0.7,0.5s0.4,0.3,0.7,0.5
			c0.2,0.2,0.5,0.4,0.7,0.5c0.3,0.3,0.6,0.5,0.9,0.8s0.5,0.5,0.7,0.8c0.2,0.2,0.3,0.4,0.5,0.6c0.2,0.2,0.4,0.5,0.5,0.7
			s0.3,0.4,0.4,0.6c0.2,0.4,0.5,0.8,0.7,1.3c0.1,0.1,0.1,0.3,0.2,0.4c0.1,0.2,0.2,0.4,0.3,0.7c0.1,0.4,0.2,0.7,0.3,1.1
			c0,0.1,0.1,0.3,0.1,0.4c0.1,0.3,0.1,0.5,0.2,0.8c0,0.2,0.1,0.4,0.1,0.6c0,0.1,0,0.2,0,0.3v0.1c0,0.1,0,0.2,0,0.3
			c0,0.4,0,0.7,0,1.1c0,0.1,0,0.2,0,0.3c0,0.1,0,0.1,0,0.2c0,0.2,0,0.3,0,0.5c0,0.1,0,0.2,0,0.3c0,0.1,0,0.3,0,0.4
			c0,0.2,0,0.4-0.1,0.5c0,0.2-0.1,0.5-0.1,0.7c-0.1,0.2-0.1,0.5-0.2,0.7c0,0.1-0.1,0.3-0.1,0.4c-0.1,0.3-0.2,0.5-0.3,0.8
			s-0.2,0.6-0.4,1c-0.1,0.1-0.1,0.3-0.2,0.4c0,0.1-0.1,0.2-0.1,0.3c-0.1,0.2-0.2,0.3-0.3,0.5s-0.2,0.3-0.3,0.5s-0.2,0.4-0.4,0.6
			c-0.1,0.2-0.3,0.4-0.4,0.6c-0.2,0.2-0.3,0.4-0.5,0.6c-0.3,0.4-0.7,0.7-1,1.1c-0.2,0.1-0.3,0.3-0.5,0.4s-0.3,0.3-0.5,0.4
			c-0.2,0.2-0.4,0.3-0.7,0.5c-0.3,0.2-0.5,0.3-0.8,0.5s-0.5,0.3-0.8,0.5c-0.4,0.2-0.7,0.4-1.1,0.5c-0.1,0.1-0.3,0.1-0.4,0.2
			c-0.2,0.1-0.3,0.1-0.5,0.2c-0.1,0-0.3,0.1-0.4,0.1C24.4,35,24.2,35,24,35.1c-0.3,0.1-0.6,0.1-1,0.2c-0.3,0-0.5,0.1-0.8,0.1
			c-0.4,0-0.7,0.1-1.1,0.1c-0.2,0-0.4,0-0.6,0c-0.8,0-1.6-0.1-2.4-0.2c-0.2,0-0.4-0.1-0.5-0.1c-0.2,0-0.3-0.1-0.5-0.1
			S16.7,35,16.6,35c-0.2,0-0.3-0.1-0.5-0.1c-0.2-0.1-0.4-0.1-0.5-0.2c-0.1,0-0.1,0-0.2-0.1c-0.1,0-0.1-0.1-0.2-0.1
			c-0.1,0-0.2-0.1-0.3-0.1s-0.1-0.1-0.2-0.1c-0.1,0-0.1,0-0.1-0.1c-0.1,0-0.1-0.1-0.2-0.1h-0.1c0,0,0,0-0.1,0c0,0-0.1,0-0.1-0.1
			c0,0,0,0-0.1,0c0,0,0,0-0.1,0l0,0l0,0c0.4,0.3,0.8,0.5,1.1,0.8C17,35.9,19.1,36.2,23.2,36.2z"/>
		<path class="st8" d="M23.2,36.2c1.4,0,2.9-0.4,4.2-1c5.4-2.3,9.9-7.2,9.9-13.9c0-6.5-5.5-14.9-14.2-14.9c-3.3,0-6.4,0.3-8.8,1.9
			c-0.2,0.1-0.4,0.3-0.6,0.4l0,0l0,0c0.8-0.4,1.6-0.8,2.5-1c0.9-0.3,1.9-0.5,3.1-0.6c0.6,0,1.2-0.1,1.9,0c0.3,0,0.6,0,0.9,0.1
			c0.4,0.1,0.8,0.1,1.2,0.2c0.2,0.1,0.5,0.1,0.7,0.2s0.5,0.1,0.7,0.2C25,7.9,25.2,7.9,25.4,8c0.2,0.1,0.3,0.1,0.5,0.2
			c0.2,0.1,0.3,0.1,0.5,0.2c0.2,0.1,0.4,0.2,0.6,0.3s0.4,0.2,0.7,0.4c0.2,0.1,0.5,0.3,0.7,0.5s0.4,0.3,0.7,0.5
			c0.2,0.2,0.5,0.4,0.7,0.5c0.3,0.3,0.6,0.5,0.9,0.8s0.5,0.5,0.7,0.8c0.2,0.2,0.3,0.4,0.5,0.6c0.2,0.2,0.4,0.5,0.5,0.7
			s0.3,0.4,0.4,0.6c0.2,0.4,0.5,0.8,0.7,1.3c0.1,0.1,0.1,0.3,0.2,0.4c0.1,0.2,0.2,0.4,0.3,0.7c0.1,0.4,0.2,0.7,0.3,1.1
			c0,0.1,0.1,0.3,0.1,0.4c0.1,0.3,0.1,0.5,0.2,0.8c0,0.2,0.1,0.4,0.1,0.6c0,0.1,0,0.2,0,0.3v0.1c0,0.1,0,0.2,0,0.3
			c0,0.4,0,0.7,0,1.1c0,0.1,0,0.2,0,0.3c0,0.1,0,0.1,0,0.2c0,0.2,0,0.3,0,0.5c0,0.1,0,0.2,0,0.3c0,0.1,0,0.3,0,0.4
			c0,0.2,0,0.4-0.1,0.5c0,0.2-0.1,0.5-0.1,0.7c-0.1,0.2-0.1,0.5-0.2,0.7c0,0.1-0.1,0.3-0.1,0.4c-0.1,0.3-0.2,0.5-0.3,0.8
			s-0.2,0.6-0.4,1c-0.1,0.1-0.1,0.3-0.2,0.4c0,0.1-0.1,0.2-0.1,0.3c-0.1,0.2-0.2,0.3-0.3,0.5s-0.2,0.3-0.3,0.5s-0.2,0.4-0.4,0.6
			c-0.1,0.2-0.3,0.4-0.4,0.6c-0.2,0.2-0.3,0.4-0.5,0.6c-0.3,0.4-0.7,0.7-1,1.1c-0.2,0.1-0.3,0.3-0.5,0.4s-0.3,0.3-0.5,0.4
			c-0.2,0.2-0.4,0.3-0.7,0.5c-0.3,0.2-0.5,0.3-0.8,0.5s-0.5,0.3-0.8,0.5c-0.4,0.2-0.7,0.4-1.1,0.5c-0.1,0.1-0.3,0.1-0.4,0.2
			c-0.2,0.1-0.3,0.1-0.5,0.2c-0.1,0-0.3,0.1-0.4,0.1C24.4,35,24.2,35,24,35.1c-0.3,0.1-0.6,0.1-1,0.2c-0.3,0-0.5,0.1-0.8,0.1
			c-0.4,0-0.7,0.1-1.1,0.1c-0.2,0-0.4,0-0.6,0c-0.8,0-1.6-0.1-2.4-0.2c-0.2,0-0.4-0.1-0.5-0.1c-0.2,0-0.3-0.1-0.5-0.1
			S16.7,35,16.6,35c-0.2,0-0.3-0.1-0.5-0.1c-0.2-0.1-0.4-0.1-0.5-0.2c-0.1,0-0.1,0-0.2-0.1c-0.1,0-0.1-0.1-0.2-0.1
			c-0.1,0-0.2-0.1-0.3-0.1s-0.1-0.1-0.2-0.1c-0.1,0-0.1,0-0.1-0.1c-0.1,0-0.1-0.1-0.2-0.1h-0.1c0,0,0,0-0.1,0c0,0-0.1,0-0.1-0.1
			c0,0,0,0-0.1,0c0,0,0,0-0.1,0l0,0l0,0c0.4,0.3,0.8,0.5,1.1,0.8C17,35.9,19.1,36.2,23.2,36.2z"/>
	</g>
	<g>
		<g>
			
				<linearGradient id="SVGID_6_" gradientUnits="userSpaceOnUse" x1="27.8903" y1="20.7011" x2="-6.5607" y2="20.4976" gradientTransform="matrix(1 0 0 -1 0 41.8898)">
				<stop  offset="0" style="stop-color:#0071BC"/>
				<stop  offset="1" style="stop-color:#000000"/>
			</linearGradient>
			<path class="st10" d="M15.1,21.1c1.2,0.2,2,0.6,2.6,1.2c0.8,0.8,1.2,1.7,1.2,2.8c0,0.8-0.3,1.6-0.8,2.4s-1.2,1.3-2.2,1.7
				c-0.9,0.3-2.3,0.5-4.2,0.5H6.3c0,0,0-2,0-3V15.9c0-1,0-3,0-3h4.8c1.3,0,2.4,0.1,3.2,0.3c1.2,0.3,2.2,0.8,2.8,1.6
				c0.7,0.8,1,1.6,1,2.6c0,0.8-0.3,1.6-0.8,2.3C16.9,20.3,16.1,20.8,15.1,21.1z M8.6,20.4c0.3,0.1,0.7,0.1,1,0.1c0.4,0,0.8,0,1.3,0
				c1.2,0,2.1-0.1,2.7-0.4s1.1-0.7,1.4-1.2c0.3-0.5,0.5-1.1,0.5-1.8c0-1-0.4-1.8-1.2-2.5s-2-1-3.5-1c-0.8,0-1.6,0.1-2.2,0.3V20.4z
				 M8.6,28.4c1,0.2,1.9,0.3,2.8,0.3c1.5,0,2.6-0.3,3.4-1c0.8-0.7,1.2-1.5,1.2-2.5c0-0.7-0.2-1.3-0.5-1.9c-0.4-0.6-0.9-1.1-1.7-1.4
				s-1.8-0.5-3-0.5c-0.5,0-0.9,0-1.3,0c-0.4,0-0.7,0-0.9,0.1C8.6,21.5,8.6,28.4,8.6,28.4z"/>
		</g>
		<g>
			
				<linearGradient id="SVGID_7_" gradientUnits="userSpaceOnUse" x1="27.7052" y1="20.6001" x2="-6.1184" y2="20.4003" gradientTransform="matrix(1 0 0 -1 0 41.8898)">
				<stop  offset="0" style="stop-color:#0071BC"/>
				<stop  offset="1" style="stop-color:#000000"/>
			</linearGradient>
			<path class="st11" d="M28.4,15c-0.1-0.1-0.3-0.4-0.7-0.6c-0.7-0.4-1.4-0.5-2.1-0.5c-0.8,0-1.5,0.2-2,0.7s-0.8,1-0.8,1.7
				c0,0.5,0.2,0.9,0.5,1.3c0.5,0.6,1.6,1.4,3.4,2.3c1.5,0.8,2.5,1.4,3,1.8s0.9,0.9,1.2,1.5c0.3,0.6,0.4,1.2,0.4,1.8
				c0,1.2-0.3,2.3-1.2,3.2c-0.5,0.6-0.9,0.8-1.5,1.1c-0.6,0.3-1.5,0.4-2.2,0.4c-0.2,0-0.9,0-1.6-0.1c-0.5-0.1-1.1-0.3-1.5-0.5
				c-0.7-0.4-1.1-0.9-1.3-1.2l0.8-0.7c0.3,0.4,0.8,0.8,1.1,0.9c0.7,0.4,1.5,0.4,2.3,0.4c1,0,1.7-0.3,2.3-0.8
				c0.6-0.5,0.8-1.1,0.8-1.8c0-0.4-0.1-0.8-0.3-1.2c-0.2-0.4-0.5-0.8-1-1.1c-0.3-0.2-1.1-0.7-2.5-1.5c-1.3-0.8-2.3-1.4-2.9-1.8
				s-1-0.9-1.3-1.5c-0.3-0.5-0.4-1.1-0.4-1.8c0-1.1,0.4-2.1,1.3-2.9c0.9-0.8,2-1.2,3.3-1.2c2,0,3.2,1,3.9,2.1L28.4,15z"/>
		</g>
		<g>
			
				<linearGradient id="SVGID_8_" gradientUnits="userSpaceOnUse" x1="27.7287" y1="16.6316" x2="-6.095" y2="16.4318" gradientTransform="matrix(1 0 0 -1 0 41.8898)">
				<stop  offset="0" style="stop-color:#0071BC"/>
				<stop  offset="1" style="stop-color:#000000"/>
			</linearGradient>
			<path class="st12" d="M24.6,25c-0.2,0.3-0.2,0.4-0.4,0.7c-0.3,0.6-0.7,1.2-1.2,1.7l-0.8,0.9c-0.5,0.4-0.9,0.7-1.3,0.9
				c-0.4,0.2-0.8,0.2-1.2,0.2c-0.6,0-1.2-0.2-1.5-0.5c-0.4-0.3-0.6-0.8-0.6-1.2c0-0.5,0.2-0.9,0.5-1.4s1-1,1.9-1.5
				c-0.2-0.4-0.3-0.7-0.4-1s-0.1-0.5-0.1-0.7c0-0.7,0.2-1.2,0.7-1.5c0.4-0.3,0.8-0.4,1.3-0.4s0.8,0.1,1.1,0.4c0.3,0.3,0.4,0.6,0.4,1
				s-0.1,0.8-0.4,1.1c-0.3,0.3-0.8,0.7-1.5,1c0.5,0.9,1.1,1.9,1.5,2.5c0.2-0.3,0.4-0.6,0.6-0.8C23.8,25.6,24,25,24,25H24.6z
				 M22,27.8c-0.6-0.7-0.9-1.2-1.1-1.5s-0.5-0.7-0.7-1.2c-0.5,0.3-0.8,0.6-1.1,0.9c-0.2,0.3-0.4,0.7-0.4,1c0,0.4,0.1,0.8,0.4,1.1
				c0.3,0.3,0.6,0.5,1.1,0.5c0.2,0,0.5,0,0.7-0.1C21.3,28.4,21.6,28.2,22,27.8z M21.1,24.2c0.5-0.2,0.8-0.5,1.1-0.8
				c0.2-0.3,0.4-0.6,0.4-1c0-0.3-0.1-0.5-0.3-0.7c-0.2-0.2-0.4-0.3-0.6-0.3c-0.3,0-0.6,0.1-0.8,0.4c-0.2,0.2-0.3,0.5-0.3,0.7
				s0,0.4,0.1,0.6C20.7,23.4,20.9,23.8,21.1,24.2z"/>
		</g>
	</g>
	<g>
		
			<linearGradient id="SVGID_9_" gradientUnits="userSpaceOnUse" x1="44.4841" y1="20.544" x2="26.5509" y2="20.5774" gradientTransform="matrix(1 0 0 -1 0 41.8898)">
			<stop  offset="0" style="stop-color:#A41D14"/>
			<stop  offset="0.4487" style="stop-color:#9D1D14"/>
			<stop  offset="0.6935" style="stop-color:#510F0A"/>
			<stop  offset="0.901" style="stop-color:#170403"/>
			<stop  offset="1" style="stop-color:#000000"/>
		</linearGradient>
		<path class="st13" d="M45.4,21.3c0,9.9-8,17.9-17.9,17.9c0,0,12.9-3.2,13-17.9s-13-17.9-13-17.9C37.3,3.4,45.4,11.4,45.4,21.3z"/>
		<path class="st14" d="M43.4,21.7c0,8.8-7.2,17.5-16,17.5c0,0,2.3-0.6,5-2.4c1.5-1,3.3-2.5,4.7-4.5c0.8-1.2,1.6-2.6,2.2-4.1
			c0.7-2.1,1.2-4.4,1.2-7c0-2.5-0.3-4.3-0.7-5.9c-0.4-1.5-1-2.8-1.9-4.3c-0.8-1.3-1.9-2.6-3-3.6c-0.8-0.8-1.7-1.4-2.5-1.9
			c-2.7-1.7-5-2.3-5-2.3C36.3,3.4,43.4,12.9,43.4,21.7z"/>
	</g>
</g>
<g>
	<path d="M69.3,21.4c0,1.5-0.4,2.8-1.1,4.1c-0.7,1.1-1.5,2-2.6,2.8c-0.7,0.6-1.7,0.7-2.6,0.9s-2,0.4-3.3,0.4h-5.8V13.2h5.9
		c1.3,0,2.4,0.2,3.3,0.4s1.7,0.6,2.4,0.9c1.1,0.7,2,1.7,2.6,2.8S69.3,19.7,69.3,21.4z M65,21.4c0-1.1-0.2-2-0.6-2.8
		c-0.4-0.7-0.9-1.3-1.9-1.9c-0.4-0.2-0.9-0.4-1.3-0.4s-1.1-0.2-2-0.2h-1.1v10.2h1.1c0.9,0,1.7,0,2.2-0.2s0.9-0.2,1.3-0.6
		c0.7-0.4,1.3-0.9,1.7-1.7C64.8,23.3,65,22.3,65,21.4z"/>
	<path d="M88.4,18.4c0,0.7-0.2,1.5-0.4,2s-0.6,1.3-1.1,1.7c-0.6,0.6-1.3,1.1-2.2,1.5c-0.9,0.4-1.9,0.6-3,0.6h-2.6v5.2h-4.3V13.2h6.9
		c1.1,0,1.9,0,2.6,0.2s1.3,0.4,1.9,0.7c0.7,0.4,1.1,0.9,1.5,1.7C88,16.6,88.4,17.3,88.4,18.4z M83.9,18.4c0-0.4-0.2-0.9-0.4-1.1
		c-0.2-0.4-0.6-0.6-0.9-0.7c-0.4-0.2-0.9-0.2-1.3-0.4s-0.9,0-1.7,0h-0.7V21H80c0.7,0,1.3,0,1.7-0.2c0.4,0,0.9-0.2,1.1-0.6
		c0.2-0.2,0.4-0.6,0.6-0.7C83.5,19.4,83.9,19,83.9,18.4z"/>
	<path d="M105.6,24.3c0,1.7-0.7,3-2,3.9c-1.3,0.9-3.2,1.5-5.6,1.5c-1.3,0-2.6-0.2-3.5-0.4s-1.9-0.6-2.8-0.9v-3.9H92
		c0.9,0.7,1.9,1.3,3,1.7s2,0.6,3.2,0.6c0.2,0,0.6,0,0.9,0s0.7-0.2,0.9-0.2c0.4-0.2,0.6-0.4,0.7-0.6s0.4-0.6,0.4-0.9
		s-0.2-0.7-0.4-0.9s-0.7-0.4-1.3-0.6c-0.6-0.2-1.3-0.4-1.9-0.4s-1.3-0.4-1.9-0.6c-1.3-0.4-2.4-1.1-3-1.9s-0.9-1.7-0.9-2.8
		c0-1.5,0.7-2.8,2-3.7s3.2-1.5,5.2-1.5c1.1,0,2,0.2,3.2,0.4s1.9,0.6,2.8,0.7v3.7h-0.4c-0.7-0.6-1.5-0.9-2.4-1.3s-1.9-0.6-3-0.6
		c-0.4,0-0.7,0-1.1,0s-0.7,0.2-0.9,0.2c-0.4,0.2-0.6,0.2-0.7,0.6s-0.4,0.6-0.4,0.7c0,0.4,0.2,0.7,0.6,0.9s0.9,0.4,1.9,0.6
		c0.6,0.2,1.1,0.2,1.7,0.4s1.1,0.2,1.9,0.6c1.3,0.4,2.2,0.9,2.8,1.7S105.6,23.1,105.6,24.3z"/>
</g>
</svg>
